<svg width="48" height="48" viewBox="0 0 48 48" fill="none" xmlns="http://www.w3.org/2000/svg">
<rect width="48" height="48" fill="#2E2E2E"/>
<path d="M17.1602 18.0371H26.3408V33.3438H32.2012V36H17.1602V33.3438H23.2695V20.71H17.1602V18.0371ZM22.8711 13.3223C22.8711 13.0566 22.9098 12.8076 22.9873 12.5752C23.0758 12.3428 23.2087 12.1436 23.3857 11.9775C23.5296 11.8337 23.7122 11.723 23.9336 11.6455C24.166 11.557 24.4261 11.5127 24.7139 11.5127C25.0016 11.5127 25.2562 11.557 25.4775 11.6455C25.6989 11.723 25.8815 11.8337 26.0254 11.9775C26.2025 12.1325 26.3353 12.3262 26.4238 12.5586C26.5124 12.791 26.5566 13.0456 26.5566 13.3223C26.5566 13.8203 26.4017 14.2354 26.0918 14.5674C25.7819 14.8994 25.3226 15.0654 24.7139 15.0654C24.0941 15.0654 23.6292 14.8994 23.3193 14.5674C23.0205 14.2354 22.8711 13.8203 22.8711 13.3223Z" fill="white"/>
</svg>
